<svg width="24" height="24" viewBox="0 0 24 24" fill="none" xmlns="http://www.w3.org/2000/svg">
<g id="Base/preview-close-one">
<g id="Vector">
<path d="M12.0001 6.75C11.3879 6.75 10.7852 6.8318 10.1966 6.97791C9.79464 7.0777 9.38784 6.83271 9.28804 6.4307C9.18825 6.02869 9.43324 5.62189 9.83525 5.52209C10.5293 5.3498 11.2536 5.25 12.0001 5.25C15.0226 5.25 17.6918 6.88254 19.5497 8.42257C20.4894 9.20141 21.2479 9.97852 21.7718 10.5609C22.0342 10.8526 22.2389 11.0967 22.3791 11.2694C22.4493 11.3559 22.5034 11.4245 22.5407 11.4725C22.5593 11.4965 22.5738 11.5153 22.5839 11.5286L22.5958 11.5443L22.5993 11.549L22.6004 11.5505C22.6004 11.5505 22.6011 11.5515 22.0001 12C22.6011 12.4485 22.601 12.4487 22.601 12.4487L22.5993 12.451L22.5958 12.4557L22.5839 12.4714C22.5738 12.4847 22.5593 12.5035 22.5407 12.5275C22.5034 12.5755 22.4493 12.6441 22.3791 12.7306C22.2388 12.9033 22.0342 13.1474 21.7718 13.4391C21.2479 14.0215 20.4893 14.7986 19.5497 15.5774C19.2308 15.8418 18.758 15.7975 18.4937 15.4786C18.2293 15.1597 18.2736 14.6869 18.5925 14.4226C19.4625 13.7014 20.1685 12.9785 20.6566 12.4359C20.8041 12.272 20.9313 12.125 21.0367 12C20.9313 11.875 20.8041 11.728 20.6566 11.5641C20.1685 11.0215 19.4625 10.2986 18.5925 9.57743C16.8311 8.11746 14.5004 6.75 12.0001 6.75ZM22.0001 12L22.601 12.4487C22.7995 12.1827 22.7997 11.8175 22.6011 11.5515L22.0001 12ZM4.45036 8.42258C4.74439 8.17885 5.17462 8.195 5.44955 8.46009L14.5206 17.2061C14.7169 17.3954 14.795 17.6762 14.7246 17.9396C14.6543 18.203 14.4465 18.4075 14.1821 18.4736C13.4828 18.6486 12.7527 18.75 12.0001 18.75C8.97753 18.75 6.3083 17.1175 4.45036 15.5774C3.51075 14.7986 2.75223 14.0215 2.22832 13.4391C1.96593 13.1474 1.76125 12.9033 1.62097 12.7306C1.5508 12.6441 1.49667 12.5755 1.45941 12.5275C1.44077 12.5035 1.42635 12.4847 1.41624 12.4714L1.40432 12.4557L1.40082 12.451L1.39968 12.4495C1.39968 12.4495 1.39895 12.4485 2.00005 12C1.39895 11.5515 1.3991 11.5513 1.3991 11.5513L1.40082 11.549L1.40432 11.5443L1.41624 11.5286C1.42635 11.5153 1.44077 11.4965 1.45941 11.4725C1.49667 11.4245 1.5508 11.3559 1.62097 11.2694C1.76125 11.0967 1.96593 10.8526 2.22832 10.5609C2.75223 9.97852 3.51075 9.20141 4.45036 8.42258ZM2.00005 12L1.3991 11.5513C1.20056 11.8173 1.20042 12.1825 1.39895 12.4485L2.00005 12ZM2.96345 12C3.06884 12.125 3.19601 12.272 3.34348 12.4359C3.83163 12.9785 4.53757 13.7014 5.40761 14.4226C7.16895 15.8825 9.49973 17.25 12.0001 17.25C12.1316 17.25 12.2628 17.2462 12.3934 17.2388L4.90004 10.0139C4.26079 10.5838 3.73285 11.1313 3.34348 11.5641C3.19601 11.728 3.06884 11.875 2.96345 12Z" fill="#DC143C"/>
<path d="M10.6641 9.75789C10.9693 10.0379 10.9899 10.5123 10.7099 10.8176C10.4237 11.1296 10.2501 11.5437 10.2501 12C10.2501 12.9665 11.0336 13.75 12.0001 13.75C12.4772 13.75 12.9086 13.56 13.225 13.2498C13.5208 12.9598 13.9957 12.9645 14.2856 13.2603C14.5756 13.5561 14.5709 14.031 14.2751 14.3209C13.6896 14.8948 12.8856 15.25 12.0001 15.25C10.2051 15.25 8.75005 13.7949 8.75005 12C8.75005 11.1537 9.07449 10.3816 9.6044 9.80374C9.88436 9.49846 10.3588 9.47793 10.6641 9.75789Z" fill="#DC143C"/>
<path d="M2.46972 2.46967C2.76261 2.17678 3.23749 2.17678 3.53038 2.46967L21.5304 20.4697C21.8233 20.7626 21.8233 21.2374 21.5304 21.5303C21.2375 21.8232 20.7626 21.8232 20.4697 21.5303L2.46972 3.53033C2.17683 3.23744 2.17683 2.76256 2.46972 2.46967Z" fill="#DC143C"/>
</g>
</g>
</svg>
