<?xml version="1.0" encoding="UTF-8"?>
<svg version="1.1" xmlns="http://www.w3.org/2000/svg" width="1366" height="1156">
<path d="M0 0 C10.27477044 8.51338122 16.26636232 19.83624243 18 33 C18.15530923 37.05284267 18.16085333 41.10469085 18.17578125 45.16015625 C18.19898972 47.5878992 18.22310747 50.01563359 18.24804688 52.44335938 C18.2830389 56.24574435 18.31244795 60.04781595 18.32592773 63.8503418 C18.34153326 67.53732778 18.38182988 71.22341264 18.42578125 74.91015625 C18.42387283 76.02729507 18.42196442 77.1444339 18.41999817 78.29542542 C18.64182579 92.83370294 23.45446555 105.90452346 33.9375 116.1875 C39.48009378 120.75738693 45.78342528 123.62244135 52.22851562 126.6640625 C55.54505354 128.26273194 58.82801162 129.92452884 62.109375 131.59375 C86.64442382 145.36454263 86.64442382 145.36454263 113.5 151.3125 C114.8096875 151.34988281 116.119375 151.38726563 117.46875 151.42578125 C129.04525719 150.8405035 139.88099698 144.36995487 150.0625 139.3125 C152.26324527 138.22795985 154.46506483 137.14562642 156.66708374 136.06367493 C158.11202261 135.35366238 159.5565473 134.64280627 161.00064087 133.93107605 C165.84443457 131.54871865 170.72442741 129.26001607 175.63574219 127.01977539 C182.75751468 123.75967445 189.30995437 120.521163 195 115 C195.54398438 114.48308594 196.08796875 113.96617187 196.6484375 113.43359375 C206.74478639 102.79911459 209.28179661 89.68537679 209.30859375 75.609375 C209.33375761 73.18359139 209.35915558 70.75781019 209.38476562 68.33203125 C209.41343841 64.54281261 209.43748194 60.75363598 209.45629883 56.96435547 C209.47810995 53.28330979 209.51756131 49.6027496 209.55859375 45.921875 C209.55870956 44.805849 209.55882538 43.689823 209.5589447 42.53997803 C209.74920337 27.21499765 214.00166435 14.44824486 224.61328125 3.2578125 C235.70988829 -7.23946879 248.42120155 -10.51843211 263.3046875 -10.27734375 C273.55097195 -9.8612825 281.97886081 -6.22414263 290 0 C291.03125 0.7425 292.0625 1.485 293.125 2.25 C301.12665836 9.90376017 307.63727505 20.75442415 308.13422108 32.05115509 C308.1406313 33.85845722 308.1406313 33.85845722 308.14717102 35.70227051 C308.15084771 36.37509111 308.1545244 37.04791171 308.1583125 37.74112082 C308.16932167 39.99473936 308.17318852 42.24831175 308.17700195 44.50195312 C308.1832689 46.11852158 308.18991591 47.7350886 308.19691467 49.35165405 C308.21793723 54.6615092 308.22831821 59.97136457 308.23828125 65.28125 C308.24233006 67.1123201 308.24644702 68.94339005 308.25063133 70.77445984 C308.2696823 79.38151602 308.2839112 87.98856364 308.2922433 96.59563684 C308.30200324 106.51278655 308.3282906 116.42971231 308.36874419 126.34678316 C308.39897413 134.02257358 308.41371885 141.69830008 308.41702431 149.37414885 C308.41936776 153.95319276 308.42823531 158.53199742 308.45348549 163.11097717 C308.47689065 167.42518117 308.48094987 171.73899052 308.47072411 176.05324173 C308.47023158 177.6285242 308.47646767 179.20382693 308.49028015 180.77904892 C308.61749807 196.15996235 305.16423329 208.10621387 295.28515625 220.078125 C284.02813543 231.4042073 266.26606038 237.40250649 252.06201172 244.14453125 C234.78908639 252.35532591 221.6832025 258.99367129 214.625 277.875 C212.46191173 284.17617017 211.85417258 289.91127105 211.86869812 296.56213379 C211.86658241 297.42294666 211.86446669 298.28375953 211.86228687 299.17065763 C211.85629652 302.05453977 211.85728635 304.93837802 211.8581543 307.82226562 C211.85512206 309.89055455 211.85160043 311.9588428 211.84762573 314.02713013 C211.83973972 318.48236668 211.83459286 322.93759524 211.83133507 327.39283752 C211.82541884 334.44546958 211.80887145 341.49805133 211.78999329 348.55065918 C211.78365585 350.96683499 211.77733023 353.38301083 211.77101612 355.79918671 C211.76785031 357.0092636 211.7646845 358.2193405 211.76142275 359.46608639 C211.7193822 375.88330642 211.68638658 392.30050317 211.67407227 408.71777344 C211.66567912 419.79364947 211.64314066 430.869401 211.6047166 441.94521475 C211.584996 447.80246003 211.57253809 453.65951934 211.57755089 459.51679993 C211.5822139 465.03266121 211.56830157 470.54817062 211.54053879 476.06396103 C211.53365444 478.08063985 211.53347052 480.09735527 211.54073906 482.11403275 C211.58950822 497.17450656 210.57918744 509.65516789 201 522 C199.88625 523.546875 199.88625 523.546875 198.75 525.125 C192.27980711 531.88929257 184.06497364 536.26240495 175.70703125 540.28515625 C174.28338509 540.98142372 174.28338509 540.98142372 172.83097839 541.6917572 C170.83714549 542.66456349 168.84129029 543.6332351 166.84350586 544.59790039 C163.83250176 546.05283503 160.82897268 547.52236261 157.82617188 548.99414062 C119.44049817 567.71521265 119.44049817 567.71521265 101.0625 562.6875 C91.85725184 559.50489319 83.18857292 554.98545028 74.46777344 550.68603516 C71.34793191 549.16916487 68.21531053 547.68769458 65.07077026 546.22315979 C62.30703438 544.93512125 59.54922255 543.6346545 56.79168701 542.33340454 C55.45201068 541.70453642 54.10998644 541.080641 52.76544189 540.46224976 C36.99813237 533.1973191 25.0462471 523.94773695 18.7265625 507.32421875 C17.06756908 502.01722368 16.85460321 496.96197298 16.86196899 491.43113708 C16.85914771 490.56961865 16.85632643 489.70810022 16.85341966 488.82047516 C16.84508826 485.93426272 16.84373664 483.04808871 16.84228516 480.16186523 C16.83761576 478.09195345 16.83247198 476.0220427 16.82688904 473.95213318 C16.81561344 469.49362217 16.80717655 465.03511783 16.80076981 460.57659721 C16.79007984 453.5200388 16.76983128 446.46352817 16.74765015 439.40699768 C16.68576272 419.34028315 16.63175307 399.27357126 16.59863281 379.20678711 C16.58026161 368.12471075 16.55129322 357.04271433 16.5106281 345.96069676 C16.48959825 340.09960089 16.47410654 334.23860559 16.47182083 328.37747002 C16.46966633 322.85919941 16.45371516 317.34113808 16.42743111 311.82293129 C16.42026689 309.80421988 16.41812308 307.78548303 16.42153358 305.76676178 C16.44555062 288.83950367 15.09875507 272.75509361 2.88012695 259.72216797 C-4.2998684 253.14540038 -13.71148317 248.93474589 -22.375 244.6875 C-24.06206055 243.84892456 -24.06206055 243.84892456 -25.78320312 242.9934082 C-31.16038076 240.331766 -36.55575001 237.72360409 -42.0078125 235.21875 C-57.77963682 227.9724218 -70.51272044 220.41527894 -77.4375 203.5625 C-79.36745301 198.30921983 -80.12718953 193.93132296 -80.14717102 188.29772949 C-80.15084771 187.62490889 -80.1545244 186.95208829 -80.1583125 186.25887918 C-80.16932167 184.00526064 -80.17318852 181.75168825 -80.17700195 179.49804688 C-80.1832689 177.88147842 -80.18991591 176.2649114 -80.19691467 174.64834595 C-80.21793723 169.3384908 -80.22831821 164.02863543 -80.23828125 158.71875 C-80.24233006 156.8876799 -80.24644702 155.05660995 -80.25063133 153.22554016 C-80.2696823 144.61848398 -80.2839112 136.01143636 -80.2922433 127.40436316 C-80.30200324 117.48721345 -80.3282906 107.57028769 -80.36874419 97.65321684 C-80.39897413 89.97742642 -80.41371885 82.30169992 -80.41702431 74.62585115 C-80.41936776 70.04680724 -80.42823531 65.46800258 -80.45348549 60.88902283 C-80.47689065 56.57481883 -80.48094987 52.26100948 -80.47072411 47.94675827 C-80.47023158 46.3714758 -80.47646767 44.79617307 -80.49028015 43.22095108 C-80.60263344 29.63720216 -78.32851877 18.92981466 -70 8 C-69.2575 6.96875 -68.515 5.9375 -67.75 4.875 C-49.6518163 -14.04582842 -20.75544504 -15.1458653 0 0 Z " fill="#3774C6" transform="translate(569,410)"/>
<path d="M0 0 C0.70060547 -0.02900391 1.40121094 -0.05800781 2.12304688 -0.08789062 C12.33671918 -0.20783438 21.32173717 4.79354648 30.1875 9.375 C37.98974588 13.34624719 45.83565923 17.1948292 53.75 20.9375 C88.61150133 37.56786655 88.61150133 37.56786655 95.9375 55.3125 C96.74967308 58.08073794 97.06716931 60.55245488 97.08467102 63.43322754 C97.09540398 64.65234329 97.09540398 64.65234329 97.10635376 65.89608765 C97.10904266 66.77922638 97.11173157 67.66236511 97.11450195 68.57226562 C97.12107315 69.50942413 97.12764435 70.44658264 97.13441467 71.41213989 C97.1541261 74.51434413 97.16580828 77.61649989 97.17578125 80.71875 C97.17985678 81.78129501 97.1839323 82.84384003 97.18813133 83.93858337 C97.20898734 89.56745203 97.2232886 95.19629638 97.23266602 100.82519531 C97.24370248 106.61741539 97.27807204 112.40924836 97.31783772 118.20133209 C97.34408798 122.67285842 97.35236553 127.14429391 97.35594749 131.6158905 C97.36079522 133.74955344 97.37235691 135.88321281 97.39098549 138.01679993 C97.50787578 152.29734438 97.36406194 164.49679062 88.109375 176.1796875 C80.26304658 183.8848949 70.63745752 188.21648697 60.875 193 C59.2536126 193.80051421 57.63243891 194.60146143 56.01147461 195.40283203 C52.04158388 197.36246179 48.06638911 199.31106491 44.08972168 201.25689697 C42.13064765 202.21776662 40.17436765 203.18396023 38.21972656 204.15380859 C4.81941603 220.71582373 4.81941603 220.71582373 -14.58807373 214.54779053 C-20.11228838 212.58372236 -25.30121543 210.06620596 -30.5390625 207.4453125 C-31.67097015 206.88810516 -32.80287781 206.33089783 -33.96908569 205.75680542 C-36.94384078 204.2898356 -39.91420985 202.81444978 -42.88275146 201.33496094 C-45.88126841 199.84386577 -48.88642604 198.36633171 -51.890625 196.88671875 C-54.21130459 195.74032614 -56.53162927 194.59321476 -58.8515625 193.4453125 C-60.44419418 192.657509 -60.44419418 192.657509 -62.06900024 191.85379028 C-77.84090392 183.99848849 -89.05785851 178.27875967 -96.0625 161.3125 C-96.86989327 158.55714104 -97.19206785 156.09683191 -97.20967102 153.22973633 C-97.21682632 152.42540665 -97.22398163 151.62107697 -97.23135376 150.79237366 C-97.23538712 149.48169167 -97.23538712 149.48169167 -97.23950195 148.14453125 C-97.24607315 147.21712631 -97.25264435 146.28972137 -97.25941467 145.33421326 C-97.27912509 142.26447463 -97.2908081 139.19478498 -97.30078125 136.125 C-97.30485678 135.07348755 -97.3089323 134.0219751 -97.31313133 132.93859863 C-97.33398699 127.36808469 -97.34828835 121.79759531 -97.35766602 116.22705078 C-97.36870193 110.49536299 -97.40307092 104.76406646 -97.44283772 99.03251648 C-97.46909028 94.60731322 -97.47736574 90.18220175 -97.48094749 85.75692749 C-97.48579469 83.64559297 -97.49735486 81.53426203 -97.51598549 79.42300415 C-97.63360241 65.20554243 -97.44670678 53.07474124 -88.234375 41.4453125 C-80.66630061 34.01335456 -71.41707255 29.73544043 -62 25.125 C-60.47638284 24.37202863 -58.95302877 23.61852467 -57.42993164 22.86450195 C-43.76341877 16.11230674 -30.07401366 9.38049083 -16.19140625 3.08203125 C-15.14255249 2.60600464 -15.14255249 2.60600464 -14.07250977 2.12036133 C-9.43177221 0.25516024 -4.96032561 0.06590335 0 0 Z " fill="#3774C6" transform="translate(683.0625,181.6875)"/>
</svg>
